<svg width="45" height="46" viewBox="0 0 45 46" fill="none" xmlns="http://www.w3.org/2000/svg">
<path d="M26.2096 22.9018L44.8644 0.920287C45.1771 0.554982 44.9142 0 44.4309 0H38.7599C38.4258 0 38.106 0.147527 37.8857 0.40043L22.5 18.5322L7.11426 0.40043C6.90106 0.147527 6.58126 0 6.24015 0H0.569096C0.0858486 0 -0.177095 0.554982 0.135594 0.920287L18.7904 22.9018L0.135594 44.8833C0.0655489 44.9647 0.0206122 45.0643 0.00611736 45.1702C-0.00837746 45.2761 0.00817847 45.3839 0.0538213 45.4808C0.0994642 45.5777 0.172277 45.6596 0.263613 45.7168C0.354949 45.7741 0.460972 45.8041 0.569096 45.8036H6.24015C6.57416 45.8036 6.89395 45.656 7.11426 45.4031L22.5 27.2714L37.8857 45.4031C38.0989 45.656 38.4187 45.8036 38.7599 45.8036H44.4309C44.9142 45.8036 45.1771 45.2486 44.8644 44.8833L26.2096 22.9018Z" fill="#EEEEEE"/>
</svg>
