<svg width="23" height="28" viewBox="0 0 23 28" fill="none" xmlns="http://www.w3.org/2000/svg">
<path d="M20.3636 11C20.3636 8.61305 19.3982 6.32387 17.6797 4.63604C15.9612 2.94821 13.6303 2 11.2 2C8.76965 2 6.43885 2.94821 4.72033 4.63604C3.00182 6.32387 2.03636 8.61305 2.03636 11C2.03636 14.692 5.04407 19.504 11.2 25.268C17.3559 19.504 20.3636 14.692 20.3636 11ZM11.2 28C3.73265 21.334 0 15.666 0 11C0 8.08262 1.18 5.28473 3.2804 3.22183C5.38081 1.15893 8.22958 0 11.2 0C14.1704 0 17.0192 1.15893 19.1196 3.22183C21.22 5.28473 22.4 8.08262 22.4 11C22.4 15.666 18.6673 21.334 11.2 28Z" fill="white"/>
<path d="M11.2 13.6641C12.0911 13.6641 12.9458 13.3455 13.5759 12.7784C14.206 12.2113 14.56 11.4421 14.56 10.6401C14.56 9.83808 14.206 9.06892 13.5759 8.50181C12.9458 7.9347 12.0911 7.6161 11.2 7.6161C10.3089 7.6161 9.45425 7.9347 8.82413 8.50181C8.194 9.06892 7.84001 9.83808 7.84001 10.6401C7.84001 11.4421 8.194 12.2113 8.82413 12.7784C9.45425 13.3455 10.3089 13.6641 11.2 13.6641V13.6641ZM11.2 15.6801C9.71479 15.6801 8.29041 15.1491 7.24021 14.2039C6.19 13.2587 5.60001 11.9768 5.60001 10.6401C5.60001 9.30341 6.19 8.02146 7.24021 7.07628C8.29041 6.1311 9.71479 5.6001 11.2 5.6001C12.6852 5.6001 14.1096 6.1311 15.1598 7.07628C16.21 8.02146 16.8 9.30341 16.8 10.6401C16.8 11.9768 16.21 13.2587 15.1598 14.2039C14.1096 15.1491 12.6852 15.6801 11.2 15.6801Z" fill="white"/>
</svg>
