<svg width="22" height="22" viewBox="0 0 22 22" fill="none" xmlns="http://www.w3.org/2000/svg">
<path d="M5.0249 1.82641C4.94373 1.72199 4.84127 1.63604 4.72433 1.57426C4.60738 1.51249 4.47864 1.4763 4.34664 1.46811C4.21463 1.45992 4.0824 1.4799 3.95872 1.52674C3.83503 1.57358 3.72273 1.6462 3.62927 1.73978L2.20752 3.16291C1.5434 3.82841 1.29865 4.77028 1.58877 5.59666C2.79291 9.01709 4.75168 12.1225 7.31977 14.6827C9.87992 17.2507 12.9854 19.2095 16.4058 20.4137C17.2321 20.7038 18.174 20.459 18.8395 19.7949L20.2613 18.3732C20.3548 18.2797 20.4275 18.1674 20.4743 18.0437C20.5211 17.92 20.5411 17.7878 20.5329 17.6558C20.5247 17.5238 20.4886 17.395 20.4268 17.2781C20.365 17.1612 20.2791 17.0587 20.1746 16.9775L17.0025 14.5108C16.891 14.4243 16.7612 14.3642 16.6231 14.3351C16.4849 14.3061 16.342 14.3088 16.205 14.343L13.1938 15.0952C12.7918 15.1956 12.3707 15.1903 11.9715 15.0797C11.5722 14.9691 11.2084 14.757 10.9154 14.464L7.5384 11.0857C7.2452 10.7928 7.03285 10.4291 6.922 10.0298C6.81116 9.63052 6.80561 9.20934 6.9059 8.80728L7.6594 5.79603C7.69365 5.65908 7.69634 5.51613 7.66728 5.37798C7.63822 5.23983 7.57817 5.11008 7.49165 4.99853L5.0249 1.82641ZM2.59115 0.703031C2.83177 0.462336 3.12084 0.275585 3.43916 0.155177C3.75749 0.0347697 4.09779 -0.0165388 4.43747 0.00465855C4.77715 0.0258559 5.10843 0.119074 5.40932 0.278124C5.71021 0.437173 5.97382 0.658414 6.18265 0.927156L8.6494 4.09791C9.10177 4.67953 9.26127 5.43716 9.08252 6.15216L8.3304 9.16341C8.29151 9.31937 8.29361 9.48274 8.3365 9.63766C8.37938 9.79257 8.46159 9.93377 8.57515 10.0475L11.9535 13.4259C12.0674 13.5397 12.2089 13.622 12.364 13.6649C12.5192 13.7078 12.6829 13.7098 12.839 13.6707L15.8489 12.9185C16.2017 12.8303 16.57 12.8235 16.9259 12.8985C17.2818 12.9735 17.616 13.1285 17.9031 13.3517L21.0739 15.8184C22.2138 16.7053 22.3183 18.3897 21.298 19.4085L19.8763 20.8303C18.8588 21.8478 17.338 22.2947 15.9204 21.7955C12.292 20.5189 8.99765 18.4417 6.28165 15.718C3.55817 13.0024 1.48098 9.70854 0.204148 6.08066C-0.293602 4.66441 0.153273 3.14228 1.17077 2.12478L2.59252 0.703031H2.59115Z" fill="white"/>
</svg>
