<svg width="35" height="23" viewBox="0 0 35 23" fill="none" xmlns="http://www.w3.org/2000/svg">
<path d="M34.2671 3.6087C34.069 2.91228 33.683 2.28177 33.1502 1.78421C32.6023 1.27134 31.9309 0.904481 31.1992 0.718245C28.4608 0.00712382 17.4898 0.00712398 17.4898 0.00712398C12.9161 -0.0441448 8.34353 0.181348 3.79789 0.68233C3.06618 0.882325 2.39598 1.25739 1.8469 1.77415C1.30739 2.28558 0.91661 2.91626 0.712471 3.60726C0.222089 6.21003 -0.0161719 8.85282 0.000899938 11.5C-0.0165977 14.1448 0.221079 16.7867 0.712471 19.3927C0.912236 20.0809 1.30156 20.7087 1.84253 21.2158C2.3835 21.7229 3.05716 22.0892 3.79789 22.2832C6.57272 22.9929 17.4898 22.9929 17.4898 22.9929C22.0693 23.0442 26.6477 22.8187 31.1992 22.3177C31.9309 22.1314 32.6023 21.7646 33.1502 21.2517C33.6828 20.7542 34.0683 20.1236 34.2657 19.4272C34.7689 16.8254 35.0135 14.1816 34.9962 11.533C35.034 8.8733 34.7897 6.21696 34.2671 3.60726V3.6087ZM14.0019 16.4189V6.58248L23.1299 11.5014L14.0019 16.4189Z" fill="white"/>
</svg>
